<?xml version="1.0" encoding="UTF-8"?>
<svg id="Layer_2" data-name="Layer 2" xmlns="http://www.w3.org/2000/svg" viewBox="0 0 400.54 92.11">
  <defs>
    <style>
      .cls-1 {
        fill: #c9afde;
      }

      .cls-2 {
        fill: #251533;
      }

      .cls-3 {
        fill: #5a2a82;
      }
    </style>
  </defs>
  <g id="Layer_1-2" data-name="Layer 1">
    <g>
      <g>
        <path class="cls-1" d="M129.84,0H46.41C29.1,0,15.08,14.03,15.08,31.33c0,13.45,8.48,24.92,20.39,29.36h14.77v-29.28h44.36L129.84,0Z"/>
        <path class="cls-3" d="M79.6,43.88v16.81h-44.36l-.1.08-20.05,17.87L0,92.11h83.43c17.3,0,31.33-14.03,31.33-31.33,0-6.44-1.94-12.41-5.27-17.39-3.63-5.43-8.91-9.66-15.12-11.97h-14.77v12.47Z"/>
      </g>
      <g>
        <path class="cls-2" d="M177.84,47.98c-1.4-1.27-3.14-2.42-5.21-3.44-2.08-1.02-4.48-1.94-7.21-2.76-1.63-.5-3.06-1.01-4.3-1.53s-2.28-1.08-3.13-1.67-1.49-1.23-1.91-1.91c-.42-.68-.64-1.44-.64-2.28,0-1.11.3-2.12.89-3.01.6-.9,1.49-1.62,2.68-2.16,1.19-.55,2.68-.82,4.47-.82s3.4.32,4.63.97c1.23.65,2.14,1.52,2.75,2.62.61,1.1.91,2.38.91,3.83h10.25c0-2.95-.76-5.57-2.29-7.87s-3.66-4.1-6.42-5.42c-2.75-1.32-5.98-1.98-9.67-1.98-2.71,0-5.19.33-7.45.99-2.26.66-4.21,1.6-5.87,2.81s-2.94,2.67-3.85,4.36c-.92,1.69-1.38,3.57-1.38,5.64s.44,4.01,1.32,5.62c.88,1.61,2.1,3.03,3.65,4.24,1.55,1.22,3.34,2.28,5.37,3.19,2.03.91,4.18,1.73,6.45,2.45,2.04.64,3.7,1.25,4.99,1.84,1.28.59,2.28,1.19,2.99,1.79.71.6,1.2,1.26,1.46,1.98.26.72.4,1.52.4,2.4,0,1.11-.28,2.11-.84,3s-1.42,1.58-2.58,2.09c-1.16.51-2.63.77-4.42.77-1.47,0-2.82-.15-4.04-.46-1.23-.31-2.28-.79-3.17-1.45-.88-.66-1.57-1.52-2.05-2.59-.48-1.07-.72-2.37-.72-3.92h-10.36c0,2.79.58,5.21,1.75,7.26,1.17,2.04,2.74,3.72,4.7,5.04,1.96,1.32,4.15,2.3,6.55,2.95,2.41.65,4.85.97,7.33.97,2.75,0,5.24-.31,7.47-.92,2.22-.61,4.14-1.51,5.75-2.69,1.6-1.18,2.83-2.62,3.68-4.33.85-1.7,1.27-3.63,1.27-5.79,0-2.04-.36-3.87-1.07-5.48s-1.77-3.05-3.17-4.33Z"/>
        <path class="cls-2" d="M202.71,57.14l-7.01-23.16h-10.63l13.09,36.97-1.11,2.85c-.3.95-.7,1.73-1.2,2.33-.5.6-1.17,1.05-2,1.35-.83.29-1.89.44-3.2.44-.25,0-.52,0-.79-.02-.28-.01-.54-.02-.79-.02v7.19c.83.2,1.54.36,2.13.48.6.11,1.36.17,2.31.17,1.97,0,3.64-.31,5.01-.92,1.36-.61,2.5-1.4,3.41-2.37.91-.97,1.63-1.98,2.17-3.05s.97-2.07,1.29-3l14.97-42.41h-10.63l-6.99,23.16Z"/>
        <path class="cls-2" d="M253.33,36.43c-1.04-1.09-2.29-1.88-3.73-2.38-1.44-.5-3.04-.75-4.78-.75-2.2,0-4.19.42-5.97,1.24-1.78.83-3.31,2.02-4.59,3.58-.07.09-.13.18-.2.27l-.35-4.41h-9.29v36.86h9.91v-26.13c.14-.26.3-.52.46-.76.63-.92,1.43-1.64,2.41-2.16.97-.52,2.13-.78,3.46-.78s2.37.19,3.25.56c.88.37,1.55,1.02,2.01,1.92s.69,2.18.69,3.81v23.54h9.98v-23.5c0-2.59-.28-4.78-.84-6.57-.56-1.79-1.36-3.24-2.41-4.33Z"/>
        <path class="cls-2" d="M292.66,38.27c-1.39-1.59-3.1-2.82-5.14-3.68s-4.38-1.29-7.02-1.29-5.14.46-7.29,1.38-3.99,2.23-5.49,3.93c-1.5,1.7-2.66,3.71-3.46,6.03-.8,2.32-1.2,4.87-1.2,7.67v1.36c0,2.45.42,4.76,1.27,6.93.85,2.17,2.07,4.07,3.66,5.71,1.59,1.63,3.54,2.91,5.83,3.83s4.89,1.38,7.78,1.38c2.41,0,4.55-.32,6.43-.97,1.88-.65,3.49-1.48,4.83-2.5,1.34-1.02,2.4-2.09,3.18-3.2l-4.82-5.18c-1.12,1.41-2.46,2.46-4.01,3.15-1.55.69-3.22,1.04-5.01,1.04-1.44,0-2.74-.25-3.87-.75-1.14-.5-2.1-1.2-2.89-2.11-.79-.91-1.4-1.99-1.82-3.24-.25-.73-.42-1.51-.52-2.32h23.76v-4.09c0-2.7-.36-5.16-1.07-7.38-.71-2.21-1.76-4.12-3.15-5.71ZM287.14,48.9h-13.88c.05-.37.09-.76.17-1.11.29-1.37.72-2.57,1.31-3.59s1.35-1.82,2.29-2.38c.94-.57,2.06-.85,3.37-.85,1.54,0,2.8.32,3.79.95.99.64,1.73,1.49,2.22,2.57.49,1.08.74,2.3.74,3.66v.75Z"/>
        <path class="cls-2" d="M320.9,33.3c-1.74,0-3.29.41-4.64,1.23-1.35.82-2.5,1.98-3.42,3.47-.11.17-.2.36-.3.55l-.33-4.56h-9.32v36.86h9.91v-24.29c.32-.74.75-1.38,1.29-1.92.68-.67,1.53-1.18,2.55-1.53,1.02-.35,2.23-.53,3.63-.53.55,0,1.16.03,1.84.08.68.06,1.26.12,1.74.19l.17-9.09c-.37-.14-.84-.24-1.41-.32-.57-.08-1.14-.12-1.69-.12Z"/>
        <path class="cls-2" d="M351.55,37.47c-.94-1.16-2.06-2.1-3.36-2.81-1.67-.91-3.75-1.36-6.23-1.36-2.34,0-4.44.46-6.3,1.36-1.86.91-3.44,2.19-4.73,3.85-1.3,1.66-2.29,3.64-2.99,5.94-.7,2.3-1.05,4.87-1.05,7.68v.72c0,2.68.35,5.16,1.05,7.43.7,2.27,1.7,4.25,3.01,5.93,1.31,1.68,2.88,2.99,4.73,3.92,1.85.93,3.92,1.4,6.21,1.4s4.27-.46,5.93-1.36c1.19-.65,2.23-1.5,3.15-2.52v2.05c0,1.75-.33,3.24-1,4.48-.67,1.24-1.62,2.18-2.86,2.83-1.24.65-2.75.97-4.54.97s-3.51-.37-5.02-1.11c-1.51-.74-2.84-1.77-3.99-3.08l-4.37,5.79c1.05,1.32,2.37,2.41,3.94,3.27,1.57.86,3.22,1.5,4.95,1.91,1.73.41,3.38.61,4.94.61,3.56,0,6.68-.61,9.36-1.82s4.78-3,6.28-5.35c1.5-2.35,2.25-5.21,2.25-8.57v-35.63h-8.98l-.4,3.49ZM348.85,62.65c-1.15.76-2.63,1.14-4.44,1.14-1.31,0-2.44-.28-3.39-.83-.95-.56-1.74-1.34-2.37-2.35-.63-1.01-1.1-2.17-1.39-3.49-.3-1.32-.45-2.74-.45-4.26v-.72c0-1.57.16-3.03.48-4.38.32-1.35.8-2.53,1.43-3.53.63-1,1.42-1.79,2.37-2.37.95-.58,2.08-.87,3.39-.87s2.52.23,3.51.68,1.79,1.09,2.41,1.91c.21.28.4.59.58.91v15.88c-.54.93-1.25,1.69-2.13,2.27Z"/>
        <path class="cls-2" d="M389.91,33.98l-6.99,23.16-7.01-23.16h-10.63l13.09,36.97-1.11,2.85c-.3.95-.7,1.73-1.2,2.33-.5.6-1.17,1.05-2,1.35-.83.29-1.89.44-3.2.44-.25,0-.52,0-.79-.02-.28-.01-.54-.02-.79-.02v7.19c.83.2,1.54.36,2.13.48.6.11,1.37.17,2.31.17,1.97,0,3.64-.31,5.01-.92,1.37-.61,2.5-1.4,3.41-2.37.91-.97,1.63-1.98,2.17-3.05s.97-2.07,1.29-3l14.97-42.41h-10.63Z"/>
      </g>
    </g>
  </g>
</svg>