<svg width="75" height="17" viewBox="0 0 75 17" fill="none" xmlns="http://www.w3.org/2000/svg">
<path d="M5.29497 2.23851C5.29497 1.73118 5.04571 1.34804 3.9396 1.34804C2.83349 1.34804 2.58423 1.72854 2.58423 2.23851V3.61782C2.58423 4.03532 2.72703 4.45281 3.1191 4.79896L6.86326 8.06227C7.39813 8.51675 7.7201 9.07958 7.7201 9.65825V11.7272C7.7201 12.9612 6.29462 13.6509 3.9396 13.6509C1.33531 13.6509 0.0889893 13.0537 0.0889893 11.7272V9.93041H2.44401V11.6532C2.44401 12.2715 2.90879 12.6335 3.94219 12.6335C4.9055 12.6335 5.37027 12.2715 5.37027 11.6532V9.81944C5.37027 9.36495 5.19111 9.02144 4.69258 8.56696L1.22885 5.50447C0.587517 4.94164 0.2292 4.50566 0.2292 3.8345V2.25701C0.2292 0.96754 1.54822 0.333374 3.9396 0.333374C6.58024 0.333374 7.65 0.970183 7.65 2.16717V3.83714H5.29757V2.23851H5.29497Z" fill="white" fill-opacity="0.97"/>
<path d="M27.9961 2.51593C27.9961 1.2291 28.9594 0.301636 32.1324 0.301636C35.3053 0.301636 36.2686 1.22646 36.2686 2.51593V11.4075C36.2686 12.6969 35.3053 13.6218 32.1324 13.6218C28.9568 13.6218 27.9935 12.6969 27.9935 11.4075L27.9961 2.51593ZM30.3486 11.3731C30.3486 12.0998 30.6342 12.6071 32.1324 12.6071C33.6305 12.6071 33.9161 12.0998 33.9161 11.3731V2.55292C33.9161 1.82628 33.6305 1.31894 32.1324 1.31894C30.6342 1.31894 30.3486 1.82628 30.3486 2.55292V11.3731Z" fill="white" fill-opacity="0.97"/>
<path d="M37.5695 0.412598H41.3162C44.3489 0.412598 45.2395 0.919931 45.2395 2.41022L45.2369 5.62333C45.2369 7.11097 44.3463 7.62095 41.3136 7.62095H39.9219V13.5187H37.5669L37.5695 0.412598ZM41.067 6.601C42.1367 6.601 42.8845 6.45567 42.8845 5.78451V2.24639C42.8845 1.57524 42.1367 1.42991 41.067 1.42991H39.9245V6.601H41.067Z" fill="white" fill-opacity="0.97"/>
<path d="M51.1179 2.20946C51.1179 1.69949 50.8687 1.31899 49.7626 1.31899C48.6565 1.31899 48.4046 1.69949 48.4046 2.20946V3.58877C48.4046 4.00626 48.5474 4.42376 48.9395 4.76726L52.6836 8.03321C53.2185 8.4877 53.5379 9.04788 53.5379 9.6292V11.6982C53.5379 12.9321 52.1124 13.6218 49.7574 13.6218C47.1531 13.6218 45.9042 13.022 45.9042 11.6982V9.904H48.2592V11.6295C48.2592 12.2478 48.724 12.6098 49.7574 12.6098C50.7207 12.6098 51.1829 12.2478 51.1829 11.6295V9.79567C51.1829 9.34118 51.0063 8.99768 50.5052 8.54319L47.0466 5.47541C46.4053 4.91259 46.047 4.4766 46.047 3.80809V2.22796C46.047 0.938488 47.366 0.304321 49.7574 0.304321C52.3954 0.304321 53.4652 0.938488 53.4652 2.13812V3.80809H51.1102V2.20946H51.1179Z" fill="white" fill-opacity="0.97"/>
<path d="M68.4912 2.20942C68.4912 1.70209 68.2393 1.32159 67.1358 1.32159C66.0297 1.32159 65.7804 1.70209 65.7804 2.20942V3.58873C65.7804 4.00622 65.9232 4.42371 66.3153 4.76722L70.0595 8.03581C70.5943 8.4903 70.9163 9.05048 70.9163 9.6318V11.7008C70.9163 12.9347 69.4882 13.6244 67.1358 13.6244C64.5315 13.6244 63.2826 13.0246 63.2826 11.7008V9.90396H65.6376L65.635 11.6294C65.635 12.2477 66.0998 12.6097 67.1358 12.6097C68.0965 12.6097 68.5613 12.2477 68.5613 11.6294V9.79562C68.5613 9.34114 68.3821 8.99763 67.8836 8.54315L64.4251 5.47537C63.7837 4.91255 63.4254 4.47656 63.4254 3.8054V2.22527C63.4254 0.938443 64.7444 0.301636 67.1358 0.301636C69.7738 0.301636 70.8436 0.938443 70.8436 2.13543V3.8054H68.4912V2.20942Z" fill="white" fill-opacity="0.97"/>
<path d="M15.0033 0.412598H17.3609L12.2017 16.8613H9.84668L15.0033 0.412598Z" fill="white" fill-opacity="0.97"/>
<path d="M11.2851 10.6306L8.09656 0.44165H10.4542L12.4639 6.86522L11.2851 10.6306Z" fill="white" fill-opacity="0.97"/>
<path d="M60.8029 0.412598H63.1579L58.0013 16.8639H55.6437L60.8029 0.412598Z" fill="white" fill-opacity="0.97"/>
<path d="M57.0951 10.6015L53.9066 0.412598H56.2616L58.2739 6.83617L57.0951 10.6015Z" fill="white" fill-opacity="0.97"/>
<path d="M26.5447 13.5161H26.5551V2.41291C26.5551 0.925258 25.6645 0.415283 22.6318 0.415283H18.0931V13.5187H20.4456L20.4482 13.5161V1.43259H22.3852C23.4549 1.43259 24.2027 1.57792 24.2027 2.24908V13.5161H26.5447Z" fill="white" fill-opacity="0.97"/>
<path d="M71.8276 2.02969C71.8276 1.15507 72.5261 0.50769 73.3518 0.50769C74.1671 0.50769 74.8655 1.15243 74.8655 2.02969C74.8655 2.91488 74.1697 3.55961 73.3518 3.55961C72.5261 3.55961 71.8276 2.91488 71.8276 2.02969ZM73.3518 3.30595C74.0295 3.30595 74.5643 2.76426 74.5643 2.02969C74.5643 1.30833 74.0295 0.761357 73.3518 0.761357C72.6637 0.761357 72.1288 1.30568 72.1288 2.02969C72.1288 2.76426 72.6637 3.30595 73.3518 3.30595ZM73.035 2.91488H72.7728V1.15507H73.4323C73.8399 1.15507 74.0424 1.30832 74.0424 1.65447C74.0424 1.96891 73.8477 2.10632 73.5933 2.14067L74.0866 2.91488H73.7932L73.3362 2.15124H73.035V2.91488ZM73.3466 1.92664C73.5699 1.92664 73.7672 1.91078 73.7672 1.64126C73.7672 1.42195 73.5725 1.38231 73.3907 1.38231H73.0324V1.92664H73.3466Z" fill="white" fill-opacity="0.97"/>
</svg>
