<svg width="667" height="155" viewBox="0 0 667 155" fill="none" xmlns="http://www.w3.org/2000/svg">
<rect width="665" height="110" fill="#FAEFFF"/>
<rect width="34.7847" height="110" transform="translate(16)" fill="#E6D1F3"/>
<rect width="34.7847" height="110" transform="translate(70.7847)" fill="#E6D1F3"/>
<rect width="34.7847" height="110" transform="translate(125.569)" fill="#E6D1F3"/>
<rect width="34.7847" height="110" transform="translate(180.354)" fill="#E6D1F3"/>
<rect width="34.7847" height="110" transform="translate(235.139)" fill="#E6D1F3"/>
<rect width="34.7847" height="110" transform="translate(289.924)" fill="#E6D1F3"/>
<rect width="34.7847" height="110" transform="translate(344.708)" fill="#E6D1F3"/>
<rect width="34.7847" height="110" transform="translate(399.493)" fill="#E6D1F3"/>
<rect width="34.7847" height="110" transform="translate(454.278)" fill="#E6D1F3"/>
<rect width="34.7847" height="110" transform="translate(509.062)" fill="#E6D1F3"/>
<rect width="34.7847" height="110" transform="translate(563.847)" fill="#E6D1F3"/>
<rect width="34.7847" height="110" transform="translate(618.632)" fill="#E6D1F3"/>
<path d="M14.098 137.002H10.9872C10.9304 136.599 10.8144 136.242 10.6392 135.93C10.464 135.612 10.2391 135.342 9.96449 135.12C9.68987 134.897 9.37263 134.727 9.01278 134.608C8.65767 134.49 8.27178 134.431 7.85511 134.431C7.10227 134.431 6.4465 134.618 5.88778 134.992C5.32907 135.361 4.89583 135.901 4.58807 136.611C4.2803 137.317 4.12642 138.174 4.12642 139.182C4.12642 140.219 4.2803 141.09 4.58807 141.796C4.90057 142.501 5.33617 143.034 5.89489 143.394C6.4536 143.754 7.09991 143.934 7.83381 143.934C8.24574 143.934 8.62689 143.879 8.97727 143.77C9.33239 143.662 9.64725 143.503 9.92188 143.295C10.1965 143.081 10.4238 142.823 10.6037 142.52C10.7884 142.217 10.9162 141.872 10.9872 141.483L14.098 141.498C14.0175 142.165 13.8163 142.809 13.4943 143.43C13.1771 144.045 12.7486 144.597 12.2088 145.084C11.6738 145.567 11.0346 145.951 10.2912 146.235C9.55256 146.514 8.71686 146.654 7.78409 146.654C6.48674 146.654 5.3267 146.36 4.30398 145.773C3.28598 145.186 2.48106 144.336 1.8892 143.224C1.30208 142.111 1.00852 140.764 1.00852 139.182C1.00852 137.596 1.30682 136.247 1.90341 135.134C2.5 134.021 3.30966 133.174 4.33239 132.591C5.35511 132.004 6.50568 131.711 7.78409 131.711C8.62689 131.711 9.40814 131.829 10.1278 132.066C10.8523 132.303 11.4938 132.648 12.0526 133.103C12.6113 133.553 13.0658 134.104 13.4162 134.758C13.7713 135.411 13.9986 136.159 14.098 137.002ZM20.9554 146.668C19.8522 146.668 18.8981 146.434 18.0932 145.965C17.293 145.492 16.6751 144.833 16.2395 143.991C15.8039 143.143 15.5861 142.161 15.5861 141.043C15.5861 139.916 15.8039 138.931 16.2395 138.089C16.6751 137.241 17.293 136.583 18.0932 136.114C18.8981 135.641 19.8522 135.404 20.9554 135.404C22.0586 135.404 23.0104 135.641 23.8105 136.114C24.6155 136.583 25.2357 137.241 25.6713 138.089C26.1069 138.931 26.3247 139.916 26.3247 141.043C26.3247 142.161 26.1069 143.143 25.6713 143.991C25.2357 144.833 24.6155 145.492 23.8105 145.965C23.0104 146.434 22.0586 146.668 20.9554 146.668ZM20.9696 144.324C21.4715 144.324 21.8906 144.182 22.2267 143.898C22.5629 143.609 22.8162 143.216 22.9867 142.719C23.1619 142.222 23.2495 141.656 23.2495 141.022C23.2495 140.387 23.1619 139.822 22.9867 139.324C22.8162 138.827 22.5629 138.434 22.2267 138.145C21.8906 137.857 21.4715 137.712 20.9696 137.712C20.463 137.712 20.0369 137.857 19.6912 138.145C19.3503 138.434 19.0923 138.827 18.9171 139.324C18.7466 139.822 18.6614 140.387 18.6614 141.022C18.6614 141.656 18.7466 142.222 18.9171 142.719C19.0923 143.216 19.3503 143.609 19.6912 143.898C20.0369 144.182 20.463 144.324 20.9696 144.324ZM31.0976 131.91V146.455H28.0721V131.91H31.0976ZM40.297 141.81V135.546H43.3226V146.455H40.4178V144.474H40.3041C40.0579 145.113 39.6484 145.626 39.0754 146.015C38.5073 146.403 37.8136 146.597 36.9945 146.597C36.2653 146.597 35.6237 146.431 35.0698 146.1C34.5158 145.769 34.0825 145.297 33.77 144.687C33.4623 144.076 33.306 143.344 33.3013 142.492V135.546H36.3269V141.952C36.3316 142.596 36.5044 143.105 36.8453 143.479C37.1862 143.853 37.6431 144.04 38.2161 144.04C38.5806 144.04 38.9216 143.957 39.2388 143.792C39.556 143.621 39.8117 143.37 40.0058 143.039C40.2047 142.707 40.3018 142.298 40.297 141.81ZM45.5227 146.455V135.546H48.4062V137.471H48.5341C48.7613 136.831 49.1401 136.327 49.6704 135.958C50.2007 135.589 50.8352 135.404 51.5738 135.404C52.3219 135.404 52.9588 135.591 53.4843 135.965C54.0099 136.334 54.3603 136.836 54.5355 137.471H54.6491C54.8717 136.846 55.2741 136.346 55.8565 135.972C56.4436 135.593 57.1373 135.404 57.9375 135.404C58.9555 135.404 59.7817 135.728 60.4162 136.377C61.0554 137.021 61.375 137.935 61.375 139.118V146.455H58.3565V139.715C58.3565 139.109 58.1955 138.654 57.8736 138.351C57.5516 138.048 57.1491 137.897 56.6662 137.897C56.1169 137.897 55.6884 138.072 55.3807 138.422C55.0729 138.768 54.919 139.225 54.919 139.793V146.455H51.9858V139.651C51.9858 139.116 51.8319 138.69 51.5241 138.373C51.2211 138.055 50.821 137.897 50.3238 137.897C49.9877 137.897 49.6846 137.982 49.4147 138.153C49.1496 138.318 48.9389 138.553 48.7826 138.856C48.6264 139.154 48.5483 139.504 48.5483 139.907V146.455H45.5227ZM66.5705 140.148V146.455H63.5449V135.546H66.4284V137.471H66.5563C66.7977 136.836 67.2026 136.334 67.7707 135.965C68.3389 135.591 69.0278 135.404 69.8375 135.404C70.5951 135.404 71.2556 135.57 71.819 135.901C72.3825 136.233 72.8205 136.706 73.133 137.322C73.4455 137.932 73.6017 138.662 73.6017 139.509V146.455H70.5761V140.049C70.5809 139.381 70.4104 138.86 70.0648 138.486C69.7191 138.108 69.2433 137.918 68.6372 137.918C68.23 137.918 67.8702 138.006 67.5577 138.181C67.2499 138.356 67.0084 138.612 66.8332 138.948C66.6628 139.279 66.5752 139.68 66.5705 140.148ZM84.843 138.657L82.0731 138.827C82.0258 138.59 81.924 138.377 81.7677 138.188C81.6115 137.994 81.4055 137.84 81.1498 137.726C80.8989 137.608 80.5982 137.549 80.2478 137.549C79.7791 137.549 79.3837 137.648 79.0617 137.847C78.7398 138.041 78.5788 138.302 78.5788 138.628C78.5788 138.889 78.683 139.109 78.8913 139.289C79.0996 139.469 79.4571 139.613 79.9637 139.722L81.9382 140.12C82.9988 140.338 83.7895 140.688 84.3103 141.171C84.8312 141.654 85.0916 142.288 85.0916 143.074C85.0916 143.789 84.8809 144.417 84.4595 144.956C84.0428 145.496 83.4699 145.918 82.7407 146.221C82.0163 146.519 81.1806 146.668 80.2336 146.668C78.7895 146.668 77.6389 146.367 76.7819 145.766C75.9296 145.16 75.4301 144.336 75.2833 143.295L78.2592 143.138C78.3492 143.579 78.567 143.915 78.9126 144.147C79.2582 144.374 79.701 144.488 80.2407 144.488C80.771 144.488 81.1972 144.386 81.5191 144.182C81.8458 143.974 82.0116 143.706 82.0163 143.38C82.0116 143.105 81.8956 142.88 81.6683 142.705C81.441 142.525 81.0906 142.388 80.6171 142.293L78.7279 141.917C77.6626 141.704 76.8695 141.334 76.3487 140.809C75.8326 140.283 75.5745 139.613 75.5745 138.799C75.5745 138.098 75.7639 137.494 76.1427 136.988C76.5262 136.481 77.0636 136.09 77.7549 135.816C78.451 135.541 79.2653 135.404 80.1981 135.404C81.576 135.404 82.6602 135.695 83.451 136.278C84.2464 136.86 84.7104 137.653 84.843 138.657Z" fill="#1E1E1E"/>
<path d="M321.909 136.156C321.81 135.811 321.67 135.505 321.49 135.24C321.31 134.97 321.09 134.743 320.83 134.558C320.574 134.369 320.28 134.224 319.949 134.125C319.622 134.026 319.26 133.976 318.862 133.976C318.119 133.976 317.465 134.161 316.902 134.53C316.343 134.899 315.908 135.437 315.595 136.142C315.283 136.843 315.126 137.7 315.126 138.713C315.126 139.726 315.28 140.588 315.588 141.298C315.896 142.009 316.331 142.551 316.895 142.925C317.458 143.294 318.124 143.479 318.891 143.479C319.587 143.479 320.181 143.356 320.673 143.109C321.17 142.858 321.549 142.506 321.81 142.051C322.075 141.597 322.207 141.059 322.207 140.439L322.832 140.531H319.082V138.216H325.169V140.048C325.169 141.327 324.899 142.425 324.359 143.344C323.82 144.258 323.076 144.963 322.129 145.46C321.182 145.953 320.098 146.199 318.876 146.199C317.513 146.199 316.315 145.898 315.283 145.297C314.25 144.691 313.446 143.831 312.868 142.719C312.295 141.601 312.009 140.276 312.009 138.741C312.009 137.562 312.179 136.511 312.52 135.588C312.866 134.66 313.348 133.874 313.969 133.23C314.589 132.586 315.311 132.096 316.135 131.76C316.959 131.424 317.851 131.256 318.812 131.256C319.636 131.256 320.403 131.376 321.114 131.618C321.824 131.855 322.454 132.191 323.003 132.626C323.557 133.062 324.009 133.58 324.359 134.182C324.71 134.778 324.935 135.437 325.034 136.156H321.909ZM330.313 146.206C329.617 146.206 328.997 146.085 328.452 145.844C327.908 145.598 327.477 145.235 327.16 144.757C326.847 144.274 326.691 143.673 326.691 142.953C326.691 142.347 326.802 141.838 327.025 141.426C327.247 141.014 327.55 140.683 327.934 140.432C328.317 140.181 328.753 139.991 329.241 139.864C329.733 139.736 330.249 139.646 330.789 139.594C331.423 139.527 331.935 139.466 332.323 139.409C332.711 139.348 332.993 139.258 333.168 139.139C333.343 139.021 333.431 138.846 333.431 138.614V138.571C333.431 138.121 333.289 137.773 333.005 137.527C332.725 137.281 332.328 137.158 331.812 137.158C331.267 137.158 330.834 137.278 330.512 137.52C330.19 137.757 329.977 138.055 329.873 138.415L327.074 138.188C327.216 137.525 327.496 136.952 327.912 136.469C328.329 135.981 328.867 135.607 329.525 135.347C330.188 135.081 330.955 134.949 331.826 134.949C332.432 134.949 333.012 135.02 333.566 135.162C334.125 135.304 334.619 135.524 335.05 135.822C335.486 136.121 335.829 136.504 336.08 136.973C336.331 137.437 336.456 137.993 336.456 138.642V146H333.587V144.487H333.502C333.327 144.828 333.092 145.129 332.799 145.389C332.505 145.645 332.153 145.846 331.741 145.993C331.329 146.135 330.853 146.206 330.313 146.206ZM331.18 144.118C331.625 144.118 332.018 144.03 332.358 143.855C332.699 143.675 332.967 143.434 333.161 143.131C333.355 142.828 333.452 142.484 333.452 142.101V140.943C333.358 141.005 333.227 141.062 333.062 141.114C332.901 141.161 332.718 141.206 332.515 141.249C332.311 141.286 332.108 141.322 331.904 141.355C331.7 141.384 331.516 141.41 331.35 141.433C330.995 141.485 330.685 141.568 330.42 141.682C330.154 141.795 329.948 141.949 329.802 142.143C329.655 142.333 329.581 142.57 329.581 142.854C329.581 143.266 329.731 143.58 330.029 143.798C330.332 144.011 330.715 144.118 331.18 144.118ZM338.584 150.091V135.091H341.567V136.923H341.702C341.834 136.63 342.026 136.331 342.277 136.028C342.533 135.721 342.864 135.465 343.271 135.261C343.683 135.053 344.195 134.949 344.805 134.949C345.601 134.949 346.335 135.157 347.007 135.574C347.679 135.986 348.217 136.608 348.619 137.442C349.022 138.27 349.223 139.31 349.223 140.56C349.223 141.777 349.027 142.804 348.634 143.642C348.245 144.475 347.715 145.107 347.043 145.538C346.375 145.964 345.627 146.178 344.798 146.178C344.211 146.178 343.712 146.08 343.3 145.886C342.893 145.692 342.559 145.448 342.298 145.155C342.038 144.857 341.839 144.556 341.702 144.253H341.609V150.091H338.584ZM341.545 140.545C341.545 141.194 341.635 141.76 341.815 142.243C341.995 142.726 342.256 143.102 342.597 143.372C342.937 143.637 343.352 143.77 343.839 143.77C344.332 143.77 344.749 143.635 345.089 143.365C345.43 143.09 345.688 142.712 345.864 142.229C346.044 141.741 346.134 141.18 346.134 140.545C346.134 139.916 346.046 139.362 345.871 138.884C345.696 138.405 345.437 138.031 345.097 137.761C344.756 137.491 344.337 137.357 343.839 137.357C343.347 137.357 342.93 137.487 342.589 137.747C342.253 138.008 341.995 138.377 341.815 138.855C341.635 139.333 341.545 139.897 341.545 140.545Z" fill="#1E1E1E"/>
<path d="M586.264 146V131.455H592.003C593.106 131.455 594.046 131.665 594.822 132.087C595.599 132.503 596.191 133.083 596.598 133.827C597.01 134.565 597.216 135.418 597.216 136.384C597.216 137.349 597.008 138.202 596.591 138.94C596.174 139.679 595.571 140.254 594.78 140.666C593.994 141.078 593.042 141.284 591.925 141.284H588.267V138.82H591.428C592.019 138.82 592.507 138.718 592.891 138.514C593.279 138.306 593.568 138.019 593.757 137.655C593.951 137.286 594.048 136.862 594.048 136.384C594.048 135.901 593.951 135.479 593.757 135.119C593.568 134.755 593.279 134.473 592.891 134.274C592.502 134.071 592.01 133.969 591.413 133.969H589.339V146H586.264ZM601.754 146.206C601.058 146.206 600.438 146.085 599.894 145.844C599.349 145.598 598.918 145.235 598.601 144.757C598.289 144.274 598.132 143.673 598.132 142.953C598.132 142.347 598.244 141.838 598.466 141.426C598.689 141.014 598.992 140.683 599.375 140.432C599.759 140.181 600.194 139.991 600.682 139.864C601.174 139.736 601.691 139.646 602.23 139.594C602.865 139.527 603.376 139.466 603.764 139.409C604.153 139.348 604.434 139.258 604.61 139.139C604.785 139.021 604.872 138.846 604.872 138.614V138.571C604.872 138.121 604.73 137.773 604.446 137.527C604.167 137.281 603.769 137.158 603.253 137.158C602.709 137.158 602.275 137.278 601.953 137.52C601.631 137.757 601.418 138.055 601.314 138.415L598.516 138.188C598.658 137.525 598.937 136.952 599.354 136.469C599.771 135.981 600.308 135.607 600.966 135.347C601.629 135.081 602.396 134.949 603.267 134.949C603.873 134.949 604.453 135.02 605.007 135.162C605.566 135.304 606.061 135.524 606.492 135.822C606.927 136.121 607.271 136.504 607.521 136.973C607.772 137.437 607.898 137.993 607.898 138.642V146H605.029V144.487H604.943C604.768 144.828 604.534 145.129 604.24 145.389C603.947 145.645 603.594 145.846 603.182 145.993C602.77 146.135 602.294 146.206 601.754 146.206ZM602.621 144.118C603.066 144.118 603.459 144.03 603.8 143.855C604.141 143.675 604.408 143.434 604.602 143.131C604.797 142.828 604.894 142.484 604.894 142.101V140.943C604.799 141.005 604.669 141.062 604.503 141.114C604.342 141.161 604.16 141.206 603.956 141.249C603.753 141.286 603.549 141.322 603.345 141.355C603.142 141.384 602.957 141.41 602.791 141.433C602.436 141.485 602.126 141.568 601.861 141.682C601.596 141.795 601.39 141.949 601.243 142.143C601.096 142.333 601.023 142.57 601.023 142.854C601.023 143.266 601.172 143.58 601.47 143.798C601.773 144.011 602.157 144.118 602.621 144.118ZM614.045 146.178C613.216 146.178 612.466 145.964 611.794 145.538C611.126 145.107 610.596 144.475 610.203 143.642C609.814 142.804 609.62 141.777 609.62 140.56C609.62 139.31 609.822 138.27 610.224 137.442C610.627 136.608 611.162 135.986 611.829 135.574C612.502 135.157 613.238 134.949 614.038 134.949C614.649 134.949 615.158 135.053 615.565 135.261C615.977 135.465 616.308 135.721 616.559 136.028C616.815 136.331 617.009 136.63 617.142 136.923H617.234V131.455H620.252V146H617.27V144.253H617.142C617 144.556 616.798 144.857 616.538 145.155C616.282 145.448 615.948 145.692 615.537 145.886C615.129 146.08 614.632 146.178 614.045 146.178ZM615.004 143.77C615.492 143.77 615.904 143.637 616.24 143.372C616.581 143.102 616.841 142.726 617.021 142.243C617.206 141.76 617.298 141.194 617.298 140.545C617.298 139.897 617.208 139.333 617.028 138.855C616.848 138.377 616.588 138.008 616.247 137.747C615.906 137.487 615.492 137.357 615.004 137.357C614.507 137.357 614.088 137.491 613.747 137.761C613.406 138.031 613.148 138.405 612.973 138.884C612.797 139.362 612.71 139.916 612.71 140.545C612.71 141.18 612.797 141.741 612.973 142.229C613.153 142.712 613.411 143.09 613.747 143.365C614.088 143.635 614.507 143.77 615.004 143.77ZM626.54 146.178C625.711 146.178 624.961 145.964 624.289 145.538C623.621 145.107 623.091 144.475 622.698 143.642C622.309 142.804 622.115 141.777 622.115 140.56C622.115 139.31 622.316 138.27 622.719 137.442C623.121 136.608 623.656 135.986 624.324 135.574C624.996 135.157 625.733 134.949 626.533 134.949C627.144 134.949 627.653 135.053 628.06 135.261C628.472 135.465 628.803 135.721 629.054 136.028C629.31 136.331 629.504 136.63 629.637 136.923H629.729V131.455H632.747V146H629.764V144.253H629.637C629.494 144.556 629.293 144.857 629.033 145.155C628.777 145.448 628.443 145.692 628.031 145.886C627.624 146.08 627.127 146.178 626.54 146.178ZM627.499 143.77C627.986 143.77 628.398 143.637 628.735 143.372C629.075 143.102 629.336 142.726 629.516 142.243C629.7 141.76 629.793 141.194 629.793 140.545C629.793 139.897 629.703 139.333 629.523 138.855C629.343 138.377 629.083 138.008 628.742 137.747C628.401 137.487 627.986 137.357 627.499 137.357C627.002 137.357 626.583 137.491 626.242 137.761C625.901 138.031 625.643 138.405 625.467 138.884C625.292 139.362 625.205 139.916 625.205 140.545C625.205 141.18 625.292 141.741 625.467 142.229C625.647 142.712 625.905 143.09 626.242 143.365C626.583 143.635 627.002 143.77 627.499 143.77ZM635.015 146V135.091H638.04V146H635.015ZM636.535 133.685C636.085 133.685 635.699 133.536 635.377 133.237C635.06 132.934 634.901 132.572 634.901 132.151C634.901 131.734 635.06 131.376 635.377 131.078C635.699 130.775 636.085 130.624 636.535 130.624C636.985 130.624 637.368 130.775 637.685 131.078C638.007 131.376 638.168 131.734 638.168 132.151C638.168 132.572 638.007 132.934 637.685 133.237C637.368 133.536 636.985 133.685 636.535 133.685ZM643.27 139.693V146H640.244V135.091H643.128V137.016H643.255C643.497 136.381 643.902 135.879 644.47 135.51C645.038 135.136 645.727 134.949 646.537 134.949C647.294 134.949 647.955 135.115 648.518 135.446C649.082 135.777 649.52 136.251 649.832 136.866C650.145 137.477 650.301 138.206 650.301 139.054V146H647.275V139.594C647.28 138.926 647.11 138.405 646.764 138.031C646.418 137.652 645.942 137.463 645.336 137.463C644.929 137.463 644.569 137.551 644.257 137.726C643.949 137.901 643.708 138.157 643.532 138.493C643.362 138.824 643.274 139.224 643.27 139.693ZM657.38 150.318C656.4 150.318 655.56 150.183 654.859 149.913C654.163 149.648 653.609 149.286 653.197 148.827C652.785 148.367 652.518 147.851 652.394 147.278L655.193 146.902C655.278 147.12 655.413 147.323 655.598 147.513C655.782 147.702 656.026 147.854 656.329 147.967C656.637 148.086 657.011 148.145 657.451 148.145C658.109 148.145 658.652 147.984 659.078 147.662C659.509 147.345 659.724 146.812 659.724 146.064V144.068H659.596C659.464 144.371 659.265 144.658 659 144.928C658.734 145.197 658.394 145.418 657.977 145.588C657.56 145.759 657.063 145.844 656.485 145.844C655.666 145.844 654.921 145.654 654.248 145.276C653.581 144.892 653.048 144.307 652.65 143.521C652.257 142.731 652.061 141.732 652.061 140.524C652.061 139.288 652.262 138.256 652.664 137.428C653.067 136.599 653.602 135.979 654.269 135.567C654.942 135.155 655.678 134.949 656.478 134.949C657.089 134.949 657.6 135.053 658.012 135.261C658.424 135.465 658.756 135.721 659.007 136.028C659.262 136.331 659.459 136.63 659.596 136.923H659.71V135.091H662.714V146.107C662.714 147.035 662.487 147.811 662.032 148.436C661.578 149.061 660.948 149.53 660.143 149.842C659.343 150.16 658.422 150.318 657.38 150.318ZM657.444 143.571C657.932 143.571 658.344 143.45 658.68 143.209C659.021 142.963 659.281 142.612 659.461 142.158C659.646 141.698 659.738 141.149 659.738 140.51C659.738 139.871 659.648 139.317 659.468 138.848C659.288 138.375 659.028 138.008 658.687 137.747C658.346 137.487 657.932 137.357 657.444 137.357C656.947 137.357 656.528 137.491 656.187 137.761C655.846 138.027 655.588 138.396 655.413 138.869C655.238 139.343 655.15 139.89 655.15 140.51C655.15 141.14 655.238 141.684 655.413 142.143C655.593 142.598 655.851 142.951 656.187 143.202C656.528 143.448 656.947 143.571 657.444 143.571Z" fill="#1E1E1E"/>
<circle cx="33.5" cy="61.5" r="2.5" fill="black"/>
<circle cx="33.5" cy="61.5" r="2.5" fill="black"/>
<line x1="33.5" y1="60" x2="33.5" y2="122" stroke="black"/>
<circle cx="333.5" cy="61.5" r="2.5" fill="black"/>
<line x1="333.5" y1="60" x2="333.5" y2="122" stroke="black"/>
<circle cx="658.5" cy="61.5" r="2.5" fill="black"/>
<line x1="658.5" y1="60" x2="658.5" y2="122" stroke="black"/>
</svg>
