<svg xmlns="http://www.w3.org/2000/svg" viewBox="0 0 640 640"><!--! Font Awesome Pro 7.0.0 by @fontawesome - https://fontawesome.com License - https://fontawesome.com/license (Commercial License) Copyright 2025 Fonticons, Inc. --><path fill="currentColor" d="M64 192L64 416C64 469 107 512 160 512L192 512L192 584C192 597.3 202.7 608 216 608C221.2 608 226.2 606.3 230.4 603.2L345.6 516.8C349.8 513.7 354.8 512 360 512L480 512C533 512 576 469 576 416L576 192C576 139 533 96 480 96L160 96C107 96 64 139 64 192zM320 184C333.3 184 344 194.7 344 208L344 320C344 333.3 333.3 344 320 344C306.7 344 296 333.3 296 320L296 208C296 194.7 306.7 184 320 184zM293.3 400C292.7 390.1 297.6 380.7 306.1 375.5C314.6 370.4 325.3 370.4 333.8 375.5C342.3 380.7 347.2 390.1 346.6 400C347.2 409.9 342.3 419.3 333.8 424.5C325.3 429.6 314.6 429.6 306.1 424.5C297.6 419.3 292.7 409.9 293.3 400z"/></svg>